<svg width="56" height="132" viewBox="0 0 56 132" fill="none" xmlns="http://www.w3.org/2000/svg">
<path d="M27.9072 59.5L27.2581 58.1477L27.9072 59.5ZM26.8465 131.061C27.4323 131.646 28.3821 131.646 28.9678 131.061L38.5138 121.515C39.0996 120.929 39.0996 119.979 38.5138 119.393C37.9281 118.808 36.9783 118.808 36.3925 119.393L27.9072 127.879L19.422 119.393C18.8362 118.808 17.8864 118.808 17.3006 119.393C16.7148 119.979 16.7148 120.929 17.3006 121.515L26.8465 131.061ZM27.9072 1C26.6634 0.161596 26.663 0.162117 26.6624 0.162966C26.662 0.163688 26.6612 0.164867 26.6602 0.166309C26.6582 0.169192 26.6554 0.173385 26.6517 0.178874C26.6444 0.189853 26.6335 0.20602 26.6192 0.227279C26.5907 0.269796 26.5487 0.332684 26.4937 0.415173C26.3837 0.58015 26.222 0.82355 26.0141 1.13924C25.5982 1.77058 24.9971 2.6912 24.2533 3.85198C22.7661 6.17319 20.7076 9.45667 18.4202 13.3092C13.8534 21.001 8.34249 31.0141 4.65628 40.1822C2.81503 44.7616 1.40256 49.1942 0.808395 53.0572C0.223434 56.8603 0.381905 60.4204 2.0607 62.9843C3.83595 65.6954 6.98986 66.8521 11.2887 66.5145C15.5484 66.1799 21.2112 64.3777 28.5563 60.8523L27.2581 58.1477C20.0304 61.6168 14.7636 63.2323 11.0538 63.5237C7.38316 63.812 5.52767 62.8026 4.57052 61.3409C3.51692 59.7318 3.21999 57.1121 3.77353 53.5133C4.31786 49.9743 5.63778 45.783 7.43972 41.3013C11.0399 32.3472 16.4586 22.4894 20.9998 14.8408C23.2664 11.0232 25.3065 7.7692 26.7793 5.47043C27.5156 4.32122 28.1099 3.41124 28.5194 2.78948C28.7242 2.47861 28.8828 2.23983 28.9898 2.07927C29.0433 1.99899 29.084 1.93827 29.1111 1.89786C29.1246 1.87766 29.1348 1.86255 29.1414 1.8526C29.1448 1.84763 29.1473 1.84396 29.1489 1.84158C29.1497 1.8404 29.1502 1.8396 29.1506 1.83901C29.1509 1.83854 29.151 1.8384 27.9072 1ZM28.5563 60.8523C35.8143 57.3687 41.1695 55.2829 45.004 54.3324C46.9211 53.8572 48.39 53.6834 49.4886 53.7305C50.5856 53.7776 51.2031 54.0388 51.555 54.3236C52.1978 54.844 52.6126 56.0635 52.0539 58.7961C51.5204 61.405 50.2155 64.7944 48.3987 68.83C46.5897 72.848 44.3287 77.3893 41.9293 82.2994C39.5368 87.1954 37.0181 92.4358 34.7253 97.796C30.1556 108.48 26.4072 119.806 26.4072 130H29.4072C29.4072 120.444 32.9453 109.586 37.4836 98.9758C39.7448 93.6893 42.2355 88.5058 44.6247 83.6165C47.007 78.7413 49.2999 74.1359 51.1342 70.0615C52.9606 66.0047 54.388 62.3561 54.9931 59.3971C55.5728 56.5618 55.5322 53.6834 53.4426 51.9919C52.4282 51.1707 51.1103 50.7973 49.6172 50.7333C48.1258 50.6693 46.3499 50.908 44.2822 51.4205C40.1472 52.4455 34.5729 54.6368 27.2581 58.1477L28.5563 60.8523Z" fill="black"/>
</svg>

