<svg width="100" height="75" viewBox="0 0 100 75" fill="none" xmlns="http://www.w3.org/2000/svg">
<path d="M50.6833 17.3542C45.8917 18.15 43.5917 22.4917 45.5542 27.0542C47.6292 31.8667 53.5583 34.95 58.4458 33.7333C62.775 32.6625 64.775 28.5167 62.9 24.1708C60.9375 19.6083 55.4667 16.5583 50.6833 17.3542ZM56.8667 29.8458L57.3 30.8L56.3875 30.9875L55.9833 30.075C55.0417 30.2458 53.975 30.2208 52.9875 29.9625L52.7167 28.35C53.5292 28.475 54.5417 28.5917 55.3125 28.4333L55.8333 28.2625C56.7542 27.8083 56.4667 26.65 55.1 26.375C54.0792 26.15 51.3792 26.3167 50.3708 24.075C49.8042 22.8083 50.225 21.4875 51.8542 20.8833L51.4042 19.8875L52.3083 19.7L52.7417 20.6542C53.4042 20.5458 54.1792 20.5042 55.0875 20.5833L55.45 22.1792C54.7417 22.0917 53.9792 22.0083 53.3167 22.1458L53.0667 22.2125C51.7792 22.5542 52.1917 23.775 53.3333 24.0708C55.2208 24.5083 57.475 24.65 58.3667 26.6208C59.0875 28.225 58.25 29.3208 56.8667 29.8458ZM99.8333 34.25L84.1417 0C58.4 16.6833 29.9458 -1.325 9.34583 18.5583L25.0333 52.8083C47.1083 34.0917 77.1958 51.8167 99.8333 34.25ZM88.1542 26.5333C86.5917 28.7042 85.4333 31.1875 84.7417 33.7875C69.7708 38.3458 51.8625 32.95 34.6667 38.9583C31.8875 37.4833 28.4042 36.5583 25.5458 36.6417L20.8167 26.2792C22.6167 24.0917 24.0333 20.7583 24.6417 17.5542C38.8042 12.4458 56.525 18.2 75.4667 11.7167C77.6375 13.1583 80.175 14.2042 82.675 14.7208L88.1542 26.5333ZM100 50.0417C71.4292 66.4625 48.3375 44.1083 18.75 75L0 33.4583L5.84167 27.3625L21.7042 62.3875L21.6958 62.4167C52.7167 39.1042 68.3417 57.5167 97.15 43.4042C98.375 46.1042 99.5042 48.9542 100 50.0417Z" fill="#1E1E1E"/>
</svg>
